<svg xmlns="http://www.w3.org/2000/svg" width="1600" height="900" viewBox="0 0 1600 900" preserveAspectRatio="xMidYMid slice">
  <defs>
    <linearGradient id="g1" x1="0" x2="1">
      <stop offset="0" stop-color="#fff3f3"/>
      <stop offset="1" stop-color="#fff9f9"/>
    </linearGradient>
  </defs>
  <rect width="1600" height="900" fill="#fff3f3"/>
  <!-- abstract medical shapes -->
  <g transform="translate(120,60)" fill="none" stroke="#ffdede" stroke-width="2">
    <ellipse cx="300" cy="200" rx="220" ry="120" fill="#fff" stroke="#ffeaea"/>
    <ellipse cx="1000" cy="320" rx="260" ry="160" fill="#fff" stroke="#fff0f0"/>
  </g>
  <!-- simple patient + cross motif -->
  <g transform="translate(180,120)">
    <rect x="0" y="0" width="420" height="240" rx="12" fill="#fff" stroke="#ffecec"/>
    <circle cx="84" cy="80" r="44" fill="#c62828" opacity="0.06" />
    <circle cx="312" cy="80" r="44" fill="#c62828" opacity="0.08" />
    <g transform="translate(50,130)">
      <rect x="0" y="0" width="320" height="15" rx="6" fill="#fff" stroke="#fff0f0" />
    </g>
  </g>
  <g transform="translate(680,220)">
    <rect x="0" y="0" width="420" height="240" rx="12" fill="#fff" stroke="#ffecec"/>
    <rect x="0" y="0" width="420" height="48" rx="12" fill="#c62828" />
    <text x="18" y="34" fill="#fff" font-size="18" font-family="Inter, Arial">Appointment</text>
  </g>
  <g transform="translate(420,420)">
    <rect x="0" y="0" width="760" height="180" rx="12" fill="#fff" stroke="#ffdede"/>
    <rect x="12" y="-16" width="140" height="50" rx="10" fill="#c62828" />
  </g>
</svg>